<?xml version="1.0" encoding="UTF-8" standalone="no"?>
<svg width="512" height="512" viewBox="0 0 512 512" fill="none" xmlns="http://www.w3.org/2000/svg">
  <rect width="512" height="512" rx="100" fill="#1E293B"/>
  <path d="M320 196C320 240.183 284.183 276 240 276C195.817 276 160 240.183 160 196C160 151.817 195.817 116 240 116C284.183 116 320 151.817 320 196Z" fill="#38BDF8"/>
  <rect x="180" y="246" width="152" height="152" rx="20" fill="#38BDF8"/>
  <rect x="140" y="130" width="20" height="260" rx="10" fill="#0F172A"/>
  <rect x="352" y="130" width="20" height="260" rx="10" fill="#0F172A"/>
  <rect x="240" y="90" width="20" height="60" rx="10" fill="#0F172A"/>
  <rect x="240" y="370" width="20" height="60" rx="10" fill="#0F172A"/>
  <rect x="160" y="380" width="180" height="20" rx="10" fill="#ffffff"/>
  <rect x="160" y="120" width="180" height="20" rx="10" fill="#ffffff"/>
</svg>